<mxfile host="app.diagrams.net" modified="2023-06-21T03:29:27.672Z" agent="Mozilla/5.0 (Windows NT 10.0; Win64; x64) AppleWebKit/537.36 (KHTML, like Gecko) Chrome/114.0.0.0 Safari/537.36" etag="vqXMHM1dIeg16fp9ojZS" version="21.5.0" type="github">
  <diagram name="Page-1" id="4BZ72GeqmuwHLpTvt8BT">
    <mxGraphModel dx="1014" dy="684" grid="1" gridSize="10" guides="1" tooltips="1" connect="1" arrows="1" fold="1" page="1" pageScale="1" pageWidth="850" pageHeight="1100" math="0" shadow="0">
      <root>
        <mxCell id="0" />
        <mxCell id="1" parent="0" />
        <mxCell id="lHSym27NKkv470pmBYcN-1" value="&lt;font style=&quot;font-size: 21px;&quot;&gt;AP all course and design&amp;nbsp;&lt;/font&gt;" style="rounded=1;whiteSpace=wrap;html=1;fillColor=#1ba1e2;fontColor=#ffffff;strokeColor=#006EAF;" vertex="1" parent="1">
          <mxGeometry x="40" y="90" width="160" height="90" as="geometry" />
        </mxCell>
        <mxCell id="lHSym27NKkv470pmBYcN-2" value="&lt;font style=&quot;font-size: 18px;&quot;&gt;React (Maximilian)&lt;/font&gt;" style="rounded=1;whiteSpace=wrap;html=1;fillColor=#1ba1e2;fontColor=#ffffff;strokeColor=#006EAF;" vertex="1" parent="1">
          <mxGeometry x="40" y="250" width="160" height="90" as="geometry" />
        </mxCell>
        <mxCell id="lHSym27NKkv470pmBYcN-3" value="" style="endArrow=none;dashed=1;html=1;dashPattern=1 3;strokeWidth=2;rounded=0;exitX=0.5;exitY=0;exitDx=0;exitDy=0;entryX=0.5;entryY=1;entryDx=0;entryDy=0;" edge="1" parent="1" source="lHSym27NKkv470pmBYcN-2" target="lHSym27NKkv470pmBYcN-1">
          <mxGeometry width="50" height="50" relative="1" as="geometry">
            <mxPoint x="90" y="230" as="sourcePoint" />
            <mxPoint x="140" y="180" as="targetPoint" />
          </mxGeometry>
        </mxCell>
        <mxCell id="lHSym27NKkv470pmBYcN-4" value="" style="shape=flexArrow;endArrow=classic;html=1;rounded=0;fillColor=#a20025;strokeColor=#6F0000;" edge="1" parent="1">
          <mxGeometry width="50" height="50" relative="1" as="geometry">
            <mxPoint x="50" y="30" as="sourcePoint" />
            <mxPoint x="820" y="30" as="targetPoint" />
          </mxGeometry>
        </mxCell>
        <mxCell id="lHSym27NKkv470pmBYcN-5" value="&lt;font style=&quot;font-size: 18px;&quot;&gt;TS(JS) language advanced&lt;/font&gt;" style="rounded=1;whiteSpace=wrap;html=1;fillColor=#1ba1e2;fontColor=#ffffff;strokeColor=#006EAF;" vertex="1" parent="1">
          <mxGeometry x="240" y="90" width="160" height="90" as="geometry" />
        </mxCell>
        <mxCell id="lHSym27NKkv470pmBYcN-6" value="&lt;font style=&quot;font-size: 18px;&quot;&gt;NodeJS + Express (Andrew)&lt;/font&gt;" style="rounded=1;whiteSpace=wrap;html=1;fillColor=#1ba1e2;fontColor=#ffffff;strokeColor=#006EAF;" vertex="1" parent="1">
          <mxGeometry x="240" y="250" width="160" height="90" as="geometry" />
        </mxCell>
        <mxCell id="lHSym27NKkv470pmBYcN-7" value="" style="endArrow=none;dashed=1;html=1;dashPattern=1 3;strokeWidth=2;rounded=0;exitX=0.5;exitY=0;exitDx=0;exitDy=0;entryX=0.5;entryY=1;entryDx=0;entryDy=0;" edge="1" parent="1" source="lHSym27NKkv470pmBYcN-6" target="lHSym27NKkv470pmBYcN-5">
          <mxGeometry width="50" height="50" relative="1" as="geometry">
            <mxPoint x="290" y="230" as="sourcePoint" />
            <mxPoint x="340" y="180" as="targetPoint" />
          </mxGeometry>
        </mxCell>
        <mxCell id="lHSym27NKkv470pmBYcN-8" value="Timeline (LTR)&lt;br&gt;" style="text;html=1;strokeColor=none;fillColor=none;align=center;verticalAlign=middle;whiteSpace=wrap;rounded=0;" vertex="1" parent="1">
          <mxGeometry x="360" y="40" width="100" height="30" as="geometry" />
        </mxCell>
        <mxCell id="lHSym27NKkv470pmBYcN-10" value="&lt;font style=&quot;font-size: 16px;&quot;&gt;AI needs consideration&lt;br&gt;(D. Tir (end))&lt;br&gt;&lt;/font&gt;" style="shape=callout;whiteSpace=wrap;html=1;perimeter=calloutPerimeter;fillColor=#d80073;fontColor=#ffffff;strokeColor=#A50040;" vertex="1" parent="1">
          <mxGeometry x="40" y="520" width="160" height="120" as="geometry" />
        </mxCell>
        <mxCell id="lHSym27NKkv470pmBYcN-11" value="&lt;font color=&quot;#000000&quot;&gt;Mordad (end)&lt;br&gt;&lt;/font&gt;" style="ellipse;whiteSpace=wrap;html=1;fillColor=#fad9d5;strokeColor=#ae4132;strokeWidth=4;" vertex="1" parent="1">
          <mxGeometry x="260" y="370" width="120" height="40" as="geometry" />
        </mxCell>
        <mxCell id="lHSym27NKkv470pmBYcN-12" value="&lt;font color=&quot;#000000&quot;&gt;TIR (end)&lt;br&gt;&lt;/font&gt;" style="ellipse;whiteSpace=wrap;html=1;fillColor=#fad9d5;strokeColor=#ae4132;strokeWidth=4;" vertex="1" parent="1">
          <mxGeometry x="70" y="370" width="120" height="40" as="geometry" />
        </mxCell>
        <mxCell id="lHSym27NKkv470pmBYcN-13" value="&lt;font style=&quot;font-size: 18px;&quot;&gt;Advanced Software&lt;br&gt;(roadmap.sh)&lt;br&gt;&lt;/font&gt;" style="rounded=1;whiteSpace=wrap;html=1;fillColor=#1ba1e2;fontColor=#ffffff;strokeColor=#006EAF;" vertex="1" parent="1">
          <mxGeometry x="440" y="90" width="160" height="90" as="geometry" />
        </mxCell>
        <mxCell id="lHSym27NKkv470pmBYcN-14" value="" style="rounded=1;whiteSpace=wrap;html=1;fillColor=#1ba1e2;fontColor=#ffffff;strokeColor=#006EAF;" vertex="1" parent="1">
          <mxGeometry x="440" y="250" width="160" height="90" as="geometry" />
        </mxCell>
        <mxCell id="lHSym27NKkv470pmBYcN-15" value="" style="endArrow=none;dashed=1;html=1;dashPattern=1 3;strokeWidth=2;rounded=0;exitX=0.5;exitY=0;exitDx=0;exitDy=0;entryX=0.5;entryY=1;entryDx=0;entryDy=0;" edge="1" parent="1" source="lHSym27NKkv470pmBYcN-14" target="lHSym27NKkv470pmBYcN-13">
          <mxGeometry width="50" height="50" relative="1" as="geometry">
            <mxPoint x="490" y="230" as="sourcePoint" />
            <mxPoint x="540" y="180" as="targetPoint" />
          </mxGeometry>
        </mxCell>
        <mxCell id="lHSym27NKkv470pmBYcN-16" value="&lt;font color=&quot;#000000&quot;&gt;&lt;br&gt;&lt;/font&gt;" style="ellipse;whiteSpace=wrap;html=1;fillColor=#fad9d5;strokeColor=#ae4132;strokeWidth=4;" vertex="1" parent="1">
          <mxGeometry x="460" y="370" width="120" height="40" as="geometry" />
        </mxCell>
      </root>
    </mxGraphModel>
  </diagram>
</mxfile>
